:SAMPLES-PER-SECOND 30
:FRAME-RANGE 1-744
:FULLY-SPECIFIED
:DEGREES
373
root  -21.8408 39.258 99.7223 -8.83212 38.5253 -1.31723
RightUpLeg  2.02049 1.62863 -0.0755204
RightLeg  -1.10585 3.98851 -5.15129
RightFoot  -5.33918 -0.826055 14.9797
RightToes  5.82063e-011 0 -3.6325e-017
Spine  14.7916 4.70317 8.96532
Spine1  -2.93422 7.65946 -11.6633
HEad  23.9567 -7.82875 -3.13011
LeftShoulder1  3.09156 -4.36796 -33.2647
LeftArm  -2.34523 1.98548 -15.0175
LeftForeArm  -22.5361 -64.7311 -27.2716
LeftHand  -0.206594 -1.72666 3.53823
RightShoulder  15.305 21.7298 52.9482
RightArm  7.6927 17.5094 -1.16502
RightForeArm  -33.1423 45.4949 13.2763
RightHand  4.47687 18.0973 21.2171
LeftUpLeg  12.9504 7.14716 3.75247
LeftLeg  4.34955 3.67414 1.61172
LeftFoot  -13.0522 0.166655 5.89669
LeftToes  1.25507e-010 -3.78807e-010 5.71421e-011
374
root  -21.6765 39.2349 100.168 -8.66472 37.5121 -1.0088
RightUpLeg  2.64838 1.47701 0.102649
RightLeg  -1.1115 5.62401 -5.34538
RightFoot  -6.49828 -0.703554 15.4971
RightToes  5.82063e-011 0 -3.6325e-017
Spine  14.2846 4.2477 9.4895
Spine1  -2.42881 7.1673 -10.8598
HEad  25.4977 -6.40929 -3.68232
LeftShoulder1  3.14102 -4.44632 -33.4988
LeftArm  -0.646696 -0.368858 -14.7641
LeftForeArm  -25.9918 -61.695 -23.8107
LeftHand  -0.15476 -2.11417 2.58123
RightShoulder  15.3842 21.4206 53.8575
RightArm  8.56807 17.1687 -1.08118
RightForeArm  -33.0758 44.5791 12.8821
RightHand  4.37418 18.2735 20.5729
LeftUpLeg  13.7044 6.62386 3.27826
LeftLeg  4.74566 5.59302 2.33647
LeftFoot  -14.3985 0.221842 5.06559
LeftToes  1.25507e-010 -3.78807e-010 5.71421e-011
375
root  -21.505 39.1688 100.545 -9.16473 36.8385 -1.55534
RightUpLeg  2.82504 1.24338 0.585825
RightLeg  0.162778 6.75063 -4.88709
RightFoot  -8.49087 -0.464096 16.2178
RightToes  5.82063e-011 0 -3.6325e-017
Spine  14.6692 3.70988 10.5076
Spine1  -2.60281 6.59197 -9.56856
HEad  26.4355 -5.46144 -4.48662
LeftShoulder1  3.20297 -4.55468 -33.735
LeftArm  0.818947 -2.58386 -15.5467
LeftForeArm  -28.4597 -58.2149 -20.6577
LeftHand  -0.0399878 -3.08034 0.778986
RightShoulder  15.2305 21.0238 54.1757
RightArm  9.41981 16.8354 -0.974192
RightForeArm  -32.6918 43.2763 12.3336
RightHand  4.32892 18.6375 20.0443
LeftUpLeg  13.0286 6.7198 4.00774
LeftLeg  8.06649 6.01474 2.6634
LeftFoot  -16.2653 0.293219 4.54358
LeftToes  1.25507e-010 -3.78807e-010 5.71421e-011
376
root  -21.3336 39.054 100.852 -9.89044 36.437 -2.39203
RightUpLeg  2.90524 1.0586 1.1695
RightLeg  1.63015 7.43988 -4.38479
RightFoot  -10.1909 -0.242503 17.0941
RightToes  5.82063e-011 0 -3.6325e-017
Spine  15.4225 3.04053 11.5604
Spine1  -2.82928 5.94601 -8.19909
HEad  26.1413 -5.03215 -4.80186
LeftShoulder1  3.29803 -4.85248 -33.4606
LeftArm  2.1913 -4.7492 -16.6781
LeftForeArm  -30.2875 -55.1745 -18.4335
LeftHand  0.126646 -4.0554 -1.28728
RightShoulder  15.0657 20.7596 54.1772
RightArm  9.80884 16.5976 -0.891606
RightForeArm  -32.578 42.1589 11.8927
RightHand  4.34073 18.9579 19.8283
LeftUpLeg  11.1888 6.24607 5.10749
LeftLeg  13.0803 5.8938 2.43375
LeftFoot  -16.72 0.344371 5.18765
LeftToes  1.25507e-010 -3.78807e-010 5.71421e-011
377
root  -21.1569 38.9671 101.1 -10.0985 36.0664 -2.77173
RightUpLeg  2.80229 0.671964 1.2456
RightLeg  2.68758 8.20417 -3.84591
RightFoot  -11.1359 -0.108808 18.0641
RightToes  5.82063e-011 0 -3.6325e-017
Spine  16.0519 2.55968 11.881
Spine1  -2.88688 5.37229 -6.77132
HEad  25.3246 -4.91027 -4.99528
LeftShoulder1  3.37969 -5.03321 -33.5819
LeftArm  3.47146 -7.86566 -17.5428
LeftForeArm  -32.8146 -51.5946 -16.2927
LeftHand  0.383526 -4.78188 -4.07989
RightShoulder  14.9572 20.5746 54.2021
RightArm  9.77983 16.7244 -0.927722
RightForeArm  -31.8781 40.953 11.4134
RightHand  4.31539 19.3977 19.3532
LeftUpLeg  8.10607 6.16827 5.87142
LeftLeg  18.9681 5.02118 2.2499
LeftFoot  -17.22 0.341087 4.62462
LeftToes  1.25507e-010 -3.78807e-010 5.71421e-011
